<svg width="39" height="58" viewBox="0 0 39 58" fill="none" xmlns="http://www.w3.org/2000/svg">
<ellipse opacity="0.15" cx="19.0181" cy="46.6422" rx="17.5085" ry="10.2228" transform="rotate(0.926985 19.0181 46.6422)" fill="#252B5C"/>
<ellipse opacity="0.5" cx="19.0181" cy="46.6422" rx="8.08086" ry="4.77063" transform="rotate(0.926985 19.0181 46.6422)" fill="#252B5C"/>
<path d="M38.312 19.6901C38.1762 28.0839 25.9992 41.0728 21.0514 46.0092C19.9129 47.1451 18.1076 47.1159 17.0064 45.9438C12.2209 40.8498 0.470503 27.4738 0.606318 19.08C0.688196 14.0197 2.753 9.19874 6.34649 5.67775C9.93999 2.15676 14.7678 0.224143 19.7679 0.305046C24.768 0.385949 29.5308 2.47375 33.0085 6.10915C36.4862 9.74455 38.3939 14.6298 38.312 19.6901Z" fill="url(#paint0_linear_1_102)"/>
<path opacity="0.25" d="M19.2116 34.6838C23.3293 34.7504 27.3049 33.1786 30.2637 30.314C33.2224 27.4494 34.9221 23.5268 34.9887 19.4091C35.0554 15.2914 33.4835 11.3159 30.6189 8.35709C27.7544 5.39831 23.8318 3.69865 19.7141 3.63202C15.5963 3.5654 11.6208 5.13726 8.66202 8.00182C5.70324 10.8664 4.00358 14.789 3.93696 18.9067C3.87033 23.0244 5.44219 26.9999 8.30675 29.9587C11.1713 32.9175 15.0939 34.6172 19.2116 34.6838Z" fill="white"/>
<defs>
<linearGradient id="paint0_linear_1_102" x1="19.7679" y1="0.305046" x2="18.9961" y2="48.0051" gradientUnits="userSpaceOnUse">
<stop stop-color="#CCCCCC"/>
<stop offset="1" stop-color="#CCCCCC"/>
</linearGradient>
</defs>
</svg>
